<svg width="1584" height="381" viewBox="0 0 1584 381" fill="none" xmlns="http://www.w3.org/2000/svg">
<g clip-path="url(#clip0_290_28)">
<path d="M150.37 5.26714C162.517 -1.75567 177.483 -1.75575 189.63 5.26714L320.37 80.8591C332.517 87.8824 340 100.864 340 114.91V266.091C340 280.137 332.517 293.118 320.37 300.141L189.63 375.733C177.483 382.756 162.517 382.756 150.37 375.733L98.4372 345.704C95.3464 343.917 93.4428 340.618 93.4428 337.047V299.527C93.4428 291.826 101.782 287.015 108.448 290.87L150.37 315.108C162.517 322.131 177.483 322.131 189.63 315.108L266.186 270.843C278.333 263.82 285.816 250.841 285.816 236.795V148.267C285.816 134.221 278.333 121.242 266.186 114.219L189.63 69.9548C177.483 62.9316 162.517 62.9318 150.37 69.9548L73.8128 114.219C61.6661 121.242 54.1829 134.221 54.1828 148.267V302.785C54.1828 310.486 45.8443 315.296 39.1777 311.442L19.63 300.141C7.48336 293.118 0.000212558 280.137 0 266.091V114.91C0 100.864 7.48312 87.8824 19.63 80.8591L150.37 5.26714Z" fill="#0B0C0C"/>
<path d="M150.37 114.597C162.517 107.573 177.483 107.573 189.63 114.597L227.58 136.539C239.727 143.562 247.21 156.542 247.21 170.588V214.473C247.21 228.52 239.727 241.5 227.58 248.523L189.63 270.465C177.483 277.488 162.517 277.488 150.37 270.465L112.417 248.523C100.271 241.5 92.7873 228.519 92.7872 214.473V170.588C92.7873 156.542 100.271 143.562 112.417 136.539L150.37 114.597Z" fill="#0B0C0C"/>
<path d="M416.05 289V91H504.875C519.358 91 531.733 93.475 542 98.425C552.45 103.375 560.425 110.342 565.925 119.325C571.608 128.308 574.45 138.942 574.45 151.225C574.45 163.325 571.608 173.958 565.925 183.125C560.242 192.292 552.267 199.442 542 204.575C531.733 209.525 519.358 212 504.875 212H443.825V183.95H503.225C514.592 183.95 523.3 181.017 529.35 175.15C535.583 169.283 538.7 161.308 538.7 151.225C538.7 141.325 535.583 133.533 529.35 127.85C523.3 122.167 514.592 119.325 503.225 119.325H451.8V289H416.05ZM679.704 289C678.787 285.333 678.054 281.3 677.504 276.9C677.137 272.5 676.954 267.183 676.954 260.95H675.854V194.4C675.854 187.067 673.746 181.567 669.529 177.9C665.496 174.05 659.262 172.125 650.829 172.125C642.579 172.125 635.979 173.683 631.029 176.8C626.262 179.733 623.329 184.042 622.229 189.725H588.954C590.421 176.708 596.654 166.167 607.654 158.1C618.654 150.033 633.412 146 651.929 146C671.179 146 685.754 150.4 695.654 159.2C705.554 167.817 710.504 180.558 710.504 197.425V260.95C710.504 265.35 710.779 269.842 711.329 274.425C712.062 279.008 713.071 283.867 714.354 289H679.704ZM631.029 291.75C616.912 291.75 605.637 288.267 597.204 281.3C588.954 274.15 584.829 264.617 584.829 252.7C584.829 239.867 589.504 229.692 598.854 222.175C608.204 214.658 621.404 209.617 638.454 207.05L682.179 200.45V222.45L644.229 228.225C635.979 229.508 629.746 231.8 625.529 235.1C621.496 238.4 619.479 242.983 619.479 248.85C619.479 254.167 621.404 258.292 625.254 261.225C629.104 263.975 634.421 265.35 641.204 265.35C651.104 265.35 659.354 262.875 665.954 257.925C672.554 252.975 675.854 246.925 675.854 239.775L679.704 260.95C676.037 271.033 669.987 278.733 661.554 284.05C653.304 289.183 643.129 291.75 631.029 291.75ZM745.599 289V148.75H779.424V182.575H780.249V289H745.599ZM780.249 215.85L776.674 182.575C779.974 170.658 785.565 161.583 793.449 155.35C801.332 149.117 810.774 146 821.774 146C825.624 146 828.374 146.367 830.024 147.1V179.825C829.107 179.458 827.824 179.275 826.174 179.275C824.524 179.092 822.507 179 820.124 179C806.741 179 796.749 181.933 790.149 187.8C783.549 193.667 780.249 203.017 780.249 215.85ZM935.368 289C934.452 285.333 933.718 281.3 933.168 276.9C932.802 272.5 932.618 267.183 932.618 260.95H931.518V194.4C931.518 187.067 929.41 181.567 925.193 177.9C921.16 174.05 914.926 172.125 906.493 172.125C898.243 172.125 891.643 173.683 886.693 176.8C881.926 179.733 878.993 184.042 877.893 189.725H844.618C846.085 176.708 852.318 166.167 863.318 158.1C874.318 150.033 889.077 146 907.593 146C926.843 146 941.418 150.4 951.318 159.2C961.218 167.817 966.168 180.558 966.168 197.425V260.95C966.168 265.35 966.443 269.842 966.993 274.425C967.726 279.008 968.735 283.867 970.018 289H935.368ZM886.693 291.75C872.577 291.75 861.301 288.267 852.868 281.3C844.618 274.15 840.493 264.617 840.493 252.7C840.493 239.867 845.168 229.692 854.518 222.175C863.868 214.658 877.068 209.617 894.118 207.05L937.843 200.45V222.45L899.893 228.225C891.643 229.508 885.41 231.8 881.193 235.1C877.16 238.4 875.143 242.983 875.143 248.85C875.143 254.167 877.068 258.292 880.918 261.225C884.768 263.975 890.085 265.35 896.868 265.35C906.768 265.35 915.018 262.875 921.618 257.925C928.218 252.975 931.518 246.925 931.518 239.775L935.368 260.95C931.702 271.033 925.651 278.733 917.218 284.05C908.968 289.183 898.793 291.75 886.693 291.75ZM1052.2 291.75C1032.77 291.75 1017.28 287.717 1005.73 279.65C994.177 271.4 987.852 260.033 986.752 245.55H1018.38C1019.29 252.7 1022.69 258.108 1028.55 261.775C1034.42 265.442 1042.3 267.275 1052.2 267.275C1061.19 267.275 1067.88 265.9 1072.28 263.15C1076.86 260.217 1079.15 256.092 1079.15 250.775C1079.15 246.925 1077.87 243.808 1075.3 241.425C1072.74 238.858 1067.88 236.75 1060.73 235.1L1038.18 229.875C1022.78 226.575 1011.32 221.442 1003.8 214.475C996.469 207.325 992.802 198.433 992.802 187.8C992.802 174.783 997.752 164.608 1007.65 157.275C1017.74 149.758 1031.58 146 1049.18 146C1066.59 146 1080.53 149.758 1090.98 157.275C1101.61 164.608 1107.48 174.783 1108.58 187.8H1076.95C1076.04 182.117 1073.1 177.808 1068.15 174.875C1063.39 171.942 1056.79 170.475 1048.35 170.475C1040.47 170.475 1034.51 171.758 1030.48 174.325C1026.44 176.708 1024.43 180.283 1024.43 185.05C1024.43 188.717 1025.99 191.833 1029.1 194.4C1032.22 196.783 1037.44 198.892 1044.78 200.725L1068.98 206.225C1082.73 209.342 1093.09 214.75 1100.05 222.45C1107.2 230.15 1110.78 239.225 1110.78 249.675C1110.78 263.058 1105.64 273.417 1095.38 280.75C1085.11 288.083 1070.72 291.75 1052.2 291.75ZM1134.47 289V91H1169.12V289H1134.47ZM1232.92 289V200.45C1232.92 191.833 1230.72 185.325 1226.32 180.925C1221.92 176.525 1215.5 174.325 1207.07 174.325C1199.73 174.325 1193.13 175.975 1187.27 179.275C1181.58 182.575 1177.09 187.158 1173.79 193.025C1170.67 198.892 1169.12 205.675 1169.12 213.375L1165.54 179.825C1170.31 169.558 1177.27 161.4 1186.44 155.35C1195.61 149.117 1206.61 146 1219.44 146C1234.66 146 1246.48 150.308 1254.92 158.925C1263.53 167.542 1267.84 179 1267.84 193.3V289H1232.92ZM1365.82 291.75C1350.97 291.75 1337.96 288.633 1326.77 282.4C1315.77 276.167 1307.16 267.55 1300.92 256.55C1294.87 245.55 1291.85 232.9 1291.85 218.6C1291.85 204.3 1294.87 191.742 1300.92 180.925C1307.16 169.925 1315.77 161.4 1326.77 155.35C1337.77 149.117 1350.61 146 1365.27 146C1379.21 146 1391.31 148.933 1401.57 154.8C1411.84 160.483 1419.82 168.55 1425.5 179C1431.18 189.45 1434.02 201.642 1434.02 215.575C1434.02 218.142 1433.93 220.525 1433.75 222.725C1433.57 224.925 1433.29 227.125 1432.92 229.325H1313.3V205.125H1406.25L1399.1 211.725C1399.1 198.525 1396.07 188.625 1390.02 182.025C1383.97 175.425 1375.54 172.125 1364.72 172.125C1352.99 172.125 1343.64 176.158 1336.67 184.225C1329.89 192.292 1326.5 203.933 1326.5 219.15C1326.5 234.183 1329.89 245.733 1336.67 253.8C1343.64 261.683 1353.45 265.625 1366.1 265.625C1373.43 265.625 1379.85 264.25 1385.35 261.5C1390.85 258.75 1394.88 254.533 1397.45 248.85H1430.17C1425.59 262.05 1417.8 272.5 1406.8 280.2C1395.98 287.9 1382.32 291.75 1365.82 291.75ZM1459.95 289V91H1494.6V289H1459.95ZM1531.39 289V91H1566.04V289H1531.39Z" fill="#0B0C0C"/>
</g>
<defs>
<clipPath id="clip0_290_28">
<rect width="1584" height="381" fill="white"/>
</clipPath>
</defs>
</svg>
